<svg width="46" height="125" viewBox="0 0 46 125" fill="none" xmlns="http://www.w3.org/2000/svg">
<path d="M0 21.647H46V45.9999C46 58.7025 35.7025 68.9999 23 68.9999C10.2975 68.9999 0 58.7025 0 45.9999V21.647Z" fill="#B74A19"/>
<path d="M12.1768 122.441L23.0003 109.588L33.1473 122.441H12.1768Z" fill="black" stroke="black" stroke-width="1.35294"/>
<mask id="path-3-inside-1" fill="white">
<path fill-rule="evenodd" clip-rule="evenodd" d="M0 0H46V46C46 58.2484 36.4257 68.2606 24.3529 68.9609V104.177L24.7366 106.095C26.1825 113.324 31.2294 119.31 38.1105 121.957C39.4559 122.474 39.0852 124.471 37.6437 124.471H8.35631C6.91479 124.471 6.54406 122.474 7.8895 121.957C14.7706 119.31 19.8175 113.324 21.2634 106.095L21.6471 104.177V68.9609C9.57425 68.2606 0 58.2484 0 46V0Z"/>
</mask>
<path d="M46 0H48.7059V-2.70588H46V0ZM0 0V-2.70588H-2.70588V0H0ZM24.3529 68.9609L24.1962 66.2595L21.6471 66.4074V68.9609H24.3529ZM24.3529 104.177H21.6471V104.444L21.6996 104.707L24.3529 104.177ZM24.7366 106.095L27.39 105.564L24.7366 106.095ZM38.1105 121.957L37.1391 124.482L38.1105 121.957ZM7.8895 121.957L6.91815 119.431H6.91814L7.8895 121.957ZM21.2634 106.095L18.61 105.564L21.2634 106.095ZM21.6471 104.177L24.3004 104.707L24.3529 104.444V104.177H21.6471ZM21.6471 68.9609H24.3529V66.4074L21.8038 66.2595L21.6471 68.9609ZM46 -2.70588H0V2.70588H46V-2.70588ZM48.7059 46V0H43.2941V46H48.7059ZM24.5096 71.6622C38.0052 70.8794 48.7059 59.6903 48.7059 46H43.2941C43.2941 56.8064 34.8463 65.6417 24.1962 66.2595L24.5096 71.6622ZM27.0588 104.177V68.9609H21.6471V104.177H27.0588ZM21.6996 104.707L22.0833 106.626L27.39 105.564L27.0063 103.646L21.6996 104.707ZM22.0833 106.626C23.711 114.764 29.3926 121.503 37.1391 124.482L39.0819 119.431C33.0661 117.117 28.654 111.884 27.39 105.564L22.0833 106.626ZM37.1391 124.482C36.8574 124.374 36.5693 124.136 36.3949 123.792C36.2362 123.48 36.2147 123.168 36.2618 122.914C36.3089 122.66 36.4411 122.376 36.7015 122.141C36.9876 121.883 37.3418 121.765 37.6437 121.765V127.177C42.0848 127.177 43.227 121.025 39.0819 119.431L37.1391 124.482ZM37.6437 121.765H8.35631V127.177H37.6437V121.765ZM8.35631 121.765C8.65819 121.765 9.01243 121.883 9.29854 122.141C9.55892 122.376 9.69107 122.66 9.7382 122.914C9.78534 123.168 9.76376 123.48 9.60506 123.792C9.43067 124.136 9.14261 124.374 8.86086 124.482L6.91814 119.431C2.77296 121.025 3.91525 127.177 8.35631 127.177V121.765ZM8.86086 124.482C16.6074 121.503 22.289 114.764 23.9167 106.626L18.61 105.564C17.346 111.884 12.9339 117.117 6.91815 119.431L8.86086 124.482ZM23.9167 106.626L24.3004 104.707L18.9937 103.646L18.61 105.564L23.9167 106.626ZM18.9412 68.9609V104.177H24.3529V68.9609H18.9412ZM-2.70588 46C-2.70588 59.6903 7.99479 70.8794 21.4904 71.6622L21.8038 66.2595C11.1537 65.6417 2.70588 56.8064 2.70588 46H-2.70588ZM-2.70588 0V46H2.70588V0H-2.70588Z" fill="black" mask="url(#path-3-inside-1)"/>
</svg>
