<svg width="134" height="32" viewBox="0 0 134 32" fill="none" xmlns="http://www.w3.org/2000/svg">
<path d="M24.16 25.176C24.48 25.048 24.7467 24.984 24.96 24.984C25.3013 24.984 25.5573 25.112 25.728 25.368C25.8987 25.624 25.984 25.9547 25.984 26.36C25.984 27 25.824 27.544 25.504 27.992C25.2053 28.44 24.6827 28.8453 23.936 29.208C22.6773 29.8053 21.0453 30.2853 19.04 30.648C17.0347 30.9893 15.0613 31.16 13.12 31.16C10.432 31.16 8.18133 30.8613 6.368 30.264C4.55467 29.6453 3.2 28.8027 2.304 27.736C1.42933 26.6693 0.992 25.464 0.992 24.12C0.992 22.2853 1.57867 20.728 2.752 19.448C3.94667 18.1467 5.696 17.208 8 16.632C6.74133 16.2693 5.77067 15.6293 5.088 14.712C4.42667 13.7947 4.096 12.7707 4.096 11.64C4.096 10.104 4.576 8.74933 5.536 7.576C6.51733 6.38133 7.82933 5.464 9.472 4.824C11.1147 4.184 12.9173 3.864 14.88 3.864C17.5253 3.864 19.5093 4.44 20.832 5.592C22.1547 6.72267 22.816 8.19467 22.816 10.008C22.816 11.2667 22.5813 12.2907 22.112 13.08C21.664 13.848 21.0133 14.232 20.16 14.232C19.5627 14.232 19.0933 14.104 18.752 13.848C18.4107 13.5707 18.24 13.1653 18.24 12.632C18.24 12.2693 18.2933 11.8747 18.4 11.448C18.5067 10.744 18.56 10.264 18.56 10.008C18.56 9.24 18.272 8.62133 17.696 8.152C17.12 7.66133 16.16 7.416 14.816 7.416C13.0027 7.416 11.552 7.8 10.464 8.568C9.376 9.336 8.832 10.3707 8.832 11.672C8.832 12.6747 9.23733 13.5067 10.048 14.168C10.88 14.808 12.224 15.16 14.08 15.224C14.5493 15.2453 14.88 15.352 15.072 15.544C15.264 15.736 15.36 16.056 15.36 16.504C15.36 17.912 14.72 18.6267 13.44 18.648C11.6693 18.6907 10.1973 18.936 9.024 19.384C7.872 19.832 7.02933 20.408 6.496 21.112C5.984 21.7947 5.728 22.5307 5.728 23.32C5.728 24.6427 6.34667 25.6453 7.584 26.328C8.82133 26.9893 10.784 27.32 13.472 27.32C15.2427 27.32 17.1093 27.1173 19.072 26.712C21.056 26.2853 22.752 25.7733 24.16 25.176ZM26.7845 31.16C25.4618 31.16 24.4058 30.68 23.6165 29.72C22.8272 28.76 22.4325 27.5013 22.4325 25.944C22.4325 24.2373 22.8272 22.6267 23.6165 21.112C24.4058 19.576 25.4512 18.3493 26.7525 17.432C28.0752 16.4933 29.4725 16.024 30.9445 16.024C31.4138 16.024 31.7232 16.12 31.8725 16.312C32.0432 16.4827 32.1818 16.8027 32.2885 17.272C32.7365 17.1867 33.2058 17.144 33.6965 17.144C34.7418 17.144 35.2645 17.5173 35.2645 18.264C35.2645 18.712 35.1045 19.7787 34.7845 21.464C34.2938 23.9173 34.0485 25.624 34.0485 26.584C34.0485 26.904 34.1232 27.16 34.2725 27.352C34.4432 27.544 34.6565 27.64 34.9125 27.64C35.3178 27.64 35.8085 27.384 36.3845 26.872C36.9605 26.3387 37.7392 25.4853 38.7205 24.312C38.9765 24.0133 39.2645 23.864 39.5845 23.864C39.8618 23.864 40.0752 23.992 40.2245 24.248C40.3952 24.504 40.4805 24.856 40.4805 25.304C40.4805 26.1573 40.2778 26.8187 39.8725 27.288C38.9978 28.376 38.0698 29.2933 37.0885 30.04C36.1072 30.7867 35.1578 31.16 34.2405 31.16C33.5365 31.16 32.8858 30.9253 32.2885 30.456C31.7125 29.9653 31.2752 29.304 30.9765 28.472C29.8672 30.264 28.4698 31.16 26.7845 31.16ZM27.9365 27.928C28.4058 27.928 28.8538 27.6507 29.2805 27.096C29.7072 26.5413 30.0165 25.8053 30.2085 24.888L31.3925 19C30.4965 19.0213 29.6645 19.3627 28.8965 20.024C28.1498 20.664 27.5525 21.5173 27.1045 22.584C26.6565 23.6507 26.4325 24.7813 26.4325 25.976C26.4325 26.6373 26.5605 27.128 26.8165 27.448C27.0938 27.768 27.4672 27.928 27.9365 27.928ZM41.2078 31.16C40.2051 31.16 39.3944 30.7547 38.7758 29.944C38.1784 29.112 37.8798 27.9707 37.8798 26.52C37.8798 24.92 37.9864 23.4587 38.1998 22.136C38.4131 20.792 38.7651 19.3733 39.2558 17.88C39.4691 17.24 39.7678 16.7813 40.1518 16.504C40.5358 16.2267 41.1438 16.088 41.9758 16.088C42.4451 16.088 42.7651 16.1627 42.9358 16.312C43.1278 16.4613 43.2238 16.6853 43.2238 16.984C43.2238 17.1547 43.1064 17.7307 42.8718 18.712C42.6584 19.5013 42.4878 20.216 42.3598 20.856C41.9331 23.096 41.7198 24.5893 41.7198 25.336C41.7198 25.784 41.7731 26.104 41.8798 26.296C41.9864 26.4667 42.1571 26.552 42.3918 26.552C42.7118 26.552 43.1171 26.232 43.6078 25.592C44.0984 24.9307 44.6104 23.9493 45.1438 22.648C45.6984 21.3253 46.2211 19.736 46.7118 17.88C46.8824 17.24 47.1384 16.7813 47.4798 16.504C47.8424 16.2267 48.3758 16.088 49.0798 16.088C49.5491 16.088 49.8798 16.216 50.0718 16.472C50.2851 16.7067 50.3918 17.0693 50.3918 17.56C50.3918 18.0933 50.3491 18.6907 50.2638 19.352C50.1784 19.992 50.0824 20.6533 49.9758 21.336C49.7624 22.7013 49.5918 23.9493 49.4638 25.08C49.3358 26.1893 49.2718 27.4587 49.2718 28.888C49.2718 29.6987 49.1011 30.2853 48.7598 30.648C48.4398 30.9893 47.9064 31.16 47.1598 31.16C46.3704 31.16 45.8158 30.9573 45.4958 30.552C45.1971 30.1253 45.0478 29.3147 45.0478 28.12C45.0478 27.8853 45.0691 27.3627 45.1118 26.552C44.7491 28.0453 44.2051 29.1867 43.4798 29.976C42.7758 30.7653 42.0184 31.16 41.2078 31.16ZM79.2433 23.864C79.5206 23.864 79.7339 23.992 79.8833 24.248C80.0539 24.504 80.1393 24.856 80.1393 25.304C80.1393 26.1573 79.9366 26.8187 79.5312 27.288C78.6566 28.3547 77.6966 29.272 76.6513 30.04C75.6059 30.7867 74.5713 31.16 73.5473 31.16C71.9259 31.16 70.6886 30.2107 69.8353 28.312C68.9393 29.4427 68.1499 30.2 67.4673 30.584C66.8059 30.968 66.0273 31.16 65.1313 31.16C63.8299 31.16 62.7526 30.68 61.8993 29.72C61.0673 28.7387 60.6513 27.4693 60.6513 25.912C60.6513 24.2053 61.0139 22.6267 61.7393 21.176C62.4646 19.704 63.4566 18.5093 64.7153 17.592C65.9953 16.6533 67.4246 16.0987 69.0033 15.928C69.4086 11.7893 70.1766 8.25867 71.3073 5.336C72.4593 2.392 73.9633 0.919998 75.8193 0.919998C76.7366 0.919998 77.4939 1.336 78.0913 2.168C78.7099 3 79.0193 4.25867 79.0193 5.944C79.0193 8.33333 78.4326 11.128 77.2593 14.328C76.0859 17.528 74.5179 20.8133 72.5553 24.184C72.6406 25.4213 72.8219 26.3067 73.0993 26.84C73.3979 27.3733 73.7713 27.64 74.2193 27.64C74.7953 27.64 75.3819 27.384 75.9792 26.872C76.5766 26.36 77.3766 25.5067 78.3793 24.312C78.6353 24.0133 78.9233 23.864 79.2433 23.864ZM75.4673 4.056C75.0619 4.056 74.6566 4.78133 74.2513 6.232C73.8459 7.66133 73.4939 9.53867 73.1953 11.864C72.9179 14.1893 72.7153 16.6213 72.5873 19.16C74.9766 13.9547 76.1713 9.77333 76.1713 6.616C76.1713 5.80533 76.0966 5.176 75.9473 4.728C75.8193 4.28 75.6593 4.056 75.4673 4.056ZM66.2513 27.928C66.6566 27.928 67.0619 27.768 67.4673 27.448C67.8726 27.1067 68.3846 26.488 69.0033 25.592C68.7899 24.44 68.6833 23.1493 68.6833 21.72C68.6833 21.208 68.7046 20.376 68.7473 19.224C67.5739 19.5867 66.5926 20.376 65.8033 21.592C65.0353 22.7867 64.6513 24.12 64.6513 25.592C64.6513 27.1493 65.1846 27.928 66.2513 27.928ZM88.992 24.824C89.2693 24.824 89.4827 24.952 89.632 25.208C89.8027 25.464 89.888 25.816 89.888 26.264C89.888 27.032 89.7067 27.6933 89.344 28.248C88.7467 29.1653 87.9573 29.88 86.976 30.392C86.016 30.904 84.864 31.16 83.52 31.16C81.472 31.16 79.8827 30.552 78.752 29.336C77.6213 28.0987 77.056 26.4347 77.056 24.344C77.056 22.872 77.3653 21.5067 77.984 20.248C78.6027 18.968 79.456 17.9547 80.544 17.208C81.6533 16.4613 82.9013 16.088 84.288 16.088C85.5253 16.088 86.5173 16.4613 87.264 17.208C88.0107 17.9333 88.384 18.9253 88.384 20.184C88.384 21.656 87.8507 22.9253 86.784 23.992C85.7387 25.0373 83.9467 25.8693 81.408 26.488C81.92 27.4693 82.784 27.96 84 27.96C84.8747 27.96 85.5893 27.7573 86.144 27.352C86.72 26.9467 87.3813 26.264 88.128 25.304C88.384 24.984 88.672 24.824 88.992 24.824ZM83.744 19.224C82.9547 19.224 82.2827 19.6827 81.728 20.6C81.1947 21.5173 80.928 22.6267 80.928 23.928V23.992C82.1867 23.6933 83.1787 23.2453 83.904 22.648C84.6293 22.0507 84.992 21.3573 84.992 20.568C84.992 20.1627 84.8747 19.8427 84.64 19.608C84.4267 19.352 84.128 19.224 83.744 19.224ZM115.001 21.272C115.065 21.2507 115.172 21.24 115.321 21.24C115.641 21.24 115.886 21.3467 116.057 21.56C116.228 21.7733 116.313 22.0613 116.313 22.424C116.313 23.0853 116.185 23.608 115.929 23.992C115.673 24.3547 115.289 24.6213 114.777 24.792C113.796 25.112 112.75 25.272 111.641 25.272C110.702 25.272 109.817 25.144 108.985 24.888C108.366 25.8907 107.684 26.9253 106.937 27.992C106.084 29.208 105.348 30.04 104.729 30.488C104.11 30.936 103.406 31.16 102.617 31.16C101.742 31.16 101.049 30.8187 100.537 30.136C100.046 29.4533 99.737 28.376 99.609 26.904C99.353 23.9173 99.225 21.304 99.225 19.064V17.944C99.2463 17.24 99.4383 16.7493 99.801 16.472C100.164 16.1947 100.708 16.056 101.433 16.056C101.988 16.056 102.393 16.184 102.649 16.44C102.926 16.6747 103.065 17.08 103.065 17.656C103.065 20.1093 103.214 23.2987 103.513 27.224C104.793 25.3253 105.753 23.8107 106.393 22.68C106.073 22.0613 105.913 21.3253 105.913 20.472C105.913 19.7467 106.073 19.0427 106.393 18.36C106.713 17.6773 107.15 17.1227 107.705 16.696C108.26 16.2693 108.889 16.056 109.593 16.056C110.212 16.056 110.713 16.28 111.097 16.728C111.481 17.1547 111.673 17.784 111.673 18.616C111.673 19.576 111.417 20.6747 110.905 21.912C111.716 21.8693 112.793 21.7093 114.137 21.432L115.001 21.272ZM117.728 13.976C116.832 13.976 116.16 13.7733 115.712 13.368C115.264 12.9413 115.04 12.3547 115.04 11.608C115.04 10.8613 115.328 10.2427 115.904 9.752C116.501 9.24 117.237 8.984 118.112 8.984C118.901 8.984 119.541 9.176 120.032 9.56C120.523 9.944 120.768 10.488 120.768 11.192C120.768 12.0453 120.491 12.728 119.936 13.24C119.381 13.7307 118.645 13.976 117.728 13.976ZM117.472 31.16C116.085 31.16 115.072 30.6693 114.432 29.688C113.813 28.7067 113.504 27.4053 113.504 25.784C113.504 24.824 113.621 23.5973 113.856 22.104C114.112 20.5893 114.432 19.1813 114.816 17.88C115.008 17.1973 115.264 16.728 115.584 16.472C115.904 16.216 116.416 16.088 117.12 16.088C118.208 16.088 118.752 16.4507 118.752 17.176C118.752 17.7093 118.549 18.9467 118.144 20.888C117.632 23.2347 117.376 24.824 117.376 25.656C117.376 26.296 117.461 26.7867 117.632 27.128C117.803 27.4693 118.091 27.64 118.496 27.64C118.88 27.64 119.36 27.3733 119.936 26.84C120.512 26.3067 121.28 25.464 122.24 24.312C122.496 24.0133 122.784 23.864 123.104 23.864C123.381 23.864 123.595 23.992 123.744 24.248C123.915 24.504 124 24.856 124 25.304C124 26.1573 123.797 26.8187 123.392 27.288C121.28 29.8693 119.307 31.16 117.472 31.16ZM132.867 24.824C133.144 24.824 133.358 24.952 133.507 25.208C133.678 25.464 133.763 25.816 133.763 26.264C133.763 27.032 133.582 27.6933 133.219 28.248C132.622 29.1653 131.832 29.88 130.851 30.392C129.891 30.904 128.739 31.16 127.395 31.16C125.347 31.16 123.758 30.552 122.627 29.336C121.496 28.0987 120.931 26.4347 120.931 24.344C120.931 22.872 121.24 21.5067 121.859 20.248C122.478 18.968 123.331 17.9547 124.419 17.208C125.528 16.4613 126.776 16.088 128.163 16.088C129.4 16.088 130.392 16.4613 131.139 17.208C131.886 17.9333 132.259 18.9253 132.259 20.184C132.259 21.656 131.726 22.9253 130.659 23.992C129.614 25.0373 127.822 25.8693 125.283 26.488C125.795 27.4693 126.659 27.96 127.875 27.96C128.75 27.96 129.464 27.7573 130.019 27.352C130.595 26.9467 131.256 26.264 132.003 25.304C132.259 24.984 132.547 24.824 132.867 24.824ZM127.619 19.224C126.83 19.224 126.158 19.6827 125.603 20.6C125.07 21.5173 124.803 22.6267 124.803 23.928V23.992C126.062 23.6933 127.054 23.2453 127.779 22.648C128.504 22.0507 128.867 21.3573 128.867 20.568C128.867 20.1627 128.75 19.8427 128.515 19.608C128.302 19.352 128.003 19.224 127.619 19.224Z" fill="#212529"/>
</svg>
