<svg width="221" height="40" viewBox="0 0 221 40" fill="none" xmlns="http://www.w3.org/2000/svg">
<path d="M54.6825 30H59.1627L61.8528 20.1395H62.0449L64.7553 30H69.2153L73.4629 14.466H69.1748L66.778 24.8928H66.6364L64.0676 14.466H59.8504L57.3119 24.9636H57.1703L54.7229 14.466H50.445L54.6825 30ZM78.8677 21.0093C78.8779 18.9664 80.1319 17.7831 81.9119 17.7831C83.6817 17.7831 84.7234 18.9158 84.7132 20.8475V30H88.9406V20.1092C88.9507 16.4583 86.8168 14.2637 83.5806 14.2637C81.214 14.2637 79.6465 15.3762 78.9385 17.1966H78.7565V9.28795H74.6404V30H78.8677V21.0093ZM91.2374 30H95.4647V14.466H91.2374V30ZM91.0452 10.2791C91.0452 11.4724 92.0869 12.4332 93.3612 12.4332C94.6253 12.4332 95.667 11.4724 95.667 10.2791C95.667 9.09579 94.6253 8.12492 93.3612 8.12492C92.0869 8.12492 91.0452 9.09579 91.0452 10.2791ZM106.713 19.0877H110.668C110.455 16.1245 108.028 14.2637 104.094 14.2637C100.099 14.2637 97.5305 16.1245 97.5406 19.108C97.5305 21.4037 99.0576 22.9308 102.021 23.5174L104.6 24.023C106.046 24.3264 106.703 24.822 106.713 25.6311C106.703 26.6323 105.682 27.2391 104.145 27.2391C102.577 27.2391 101.586 26.612 101.384 25.3984H97.126C97.4799 28.4324 99.9375 30.3034 104.134 30.3034C108.261 30.3034 111.001 28.2605 111.012 25.2063C111.001 22.9611 109.545 21.6161 106.541 20.9992L103.75 20.4328C102.294 20.1193 101.738 19.5732 101.758 18.8652C101.738 17.9348 102.779 17.2876 104.155 17.2876C105.571 17.2876 106.521 17.9854 106.713 19.0877ZM112.647 30H116.875V25.0445L118.068 23.6893L122.356 30H127.332L121.234 21.1913L127.029 14.466H122.164L117.118 20.4025H116.875V9.28795H112.647V30ZM130.741 35.8253C134.018 35.8253 135.717 34.2172 136.597 31.7091L142.655 14.466H138.175L134.888 25.9142H134.726L131.459 14.466H127.01L132.592 30.4349L132.339 31.0922C131.824 32.4373 131.146 32.5081 130.296 32.5081C129.781 32.5081 129.133 32.498 128.597 32.4575L128.587 35.7545C129.143 35.805 129.912 35.8253 130.741 35.8253ZM147.981 21.0093C147.991 18.9664 149.205 17.7831 150.974 17.7831C152.724 17.7831 153.766 18.936 153.756 20.8475V30H157.983V20.1092C157.993 16.4785 155.869 14.2637 152.633 14.2637C150.327 14.2637 148.669 15.3964 147.971 17.1966H147.789V14.466H143.754V30H147.981V21.0093ZM167.282 30.3034C171.984 30.3034 174.907 27.0773 174.907 22.2937C174.907 17.4797 171.984 14.2637 167.282 14.2637C162.589 14.2637 159.656 17.4797 159.656 22.2937C159.656 27.0773 162.589 30.3034 167.282 30.3034ZM163.954 22.2633C163.954 19.5428 165.097 17.5 167.312 17.5C169.476 17.5 170.609 19.5428 170.609 22.2633C170.609 24.9939 169.476 27.0166 167.312 27.0166C165.097 27.0166 163.954 24.9939 163.954 22.2633ZM184.796 14.466H181.863V10.7443H177.636V14.466H175.492V17.6517H177.636V25.8131C177.616 28.837 179.699 30.2124 182.773 30.2124C183.805 30.2124 184.553 30.1315 185.008 30.0607V26.7233C184.503 26.7536 183.765 26.8042 183.35 26.7941C182.48 26.7637 181.863 26.4705 181.863 25.2366V17.6517H184.796V14.466ZM193.357 30.3034C197.18 30.3034 199.749 28.4426 200.366 25.5805H196.341C195.906 26.5008 194.884 27.1278 193.428 27.1278C191.254 27.1278 189.858 25.6816 189.858 23.3252H200.467V22.142C200.467 16.8426 197.261 14.2637 193.185 14.2637C188.634 14.2637 185.671 17.5101 185.671 22.3038C185.671 27.229 188.594 30.3034 193.357 30.3034ZM189.858 20.6755C189.959 18.8956 191.314 17.4292 193.256 17.4292C195.147 17.4292 196.462 18.7945 196.472 20.6755H189.858Z" fill="#121212"/>
<path d="M41.4075 19.5254C41.4075 30.309 32.6657 39.0508 21.8821 39.0508C11.0985 39.0508 2.35666 30.309 2.35666 19.5254C2.35666 8.74183 11.0985 0 21.8821 0C32.6657 0 41.4075 8.74183 41.4075 19.5254Z" fill="#121212"/>
<path d="M40.6119 14.2643C40.3795 14.1905 40.1181 14.1536 39.8567 14.1167C39.2758 14.0429 38.6948 14.0429 38.1139 14.0798C36.0516 14.2274 34.1346 14.8913 32.508 15.6844C30.5038 16.6804 28.761 17.8976 27.1344 19.1518C25.4788 20.4428 23.9393 21.8076 22.3708 23.154C21.6156 23.8364 20.8314 24.5188 20.0181 25.1828C19.2338 25.8283 18.4205 26.4738 17.462 26.9902C17.2587 27.1009 16.823 27.3222 16.6487 27.3407C16.6487 27.0271 16.852 26.6029 16.9972 26.2525C17.3458 25.441 17.8105 24.6295 18.2462 23.8364C19.2338 22.0474 20.2795 20.2399 21.3542 18.4694C21.7608 17.7685 22.1965 17.0677 22.5741 16.3853C22.6613 16.2193 22.9227 15.8873 22.6613 15.7582C22.3999 15.6475 22.1094 15.8688 21.9642 15.9795C20.599 17.0123 19.2919 18.1005 18.0139 19.1702C16.1549 20.701 14.325 22.2318 12.4951 23.7811C11.6818 24.4819 10.8394 25.1828 9.99709 25.8836C9.82281 26.0312 9.61949 26.1972 9.41617 26.3631C10.3166 25.3303 11.217 24.2975 12.0303 23.2462C13.2503 21.7707 14.5283 20.1662 15.4287 18.7645C15.9225 18.0083 16.5325 16.9939 16.5906 16.459C16.6196 16.0717 16.4163 15.666 15.7773 15.5553C15.1964 15.4631 14.5864 15.5184 14.0345 15.6106C12.2627 15.9242 10.6652 16.5697 9.1838 17.2521C8.19622 17.7316 7.23769 18.2849 6.39535 18.8751C6.3663 18.8936 -5.56124 27.064 5.95966 19.244C5.9887 19.2624 7.96385 18.0636 8.13813 17.9714C9.03856 17.4734 9.99709 17.0123 11.0137 16.625C12.0594 16.2193 13.1922 15.8504 14.3831 15.7029C16.0387 15.5184 16.3292 15.9611 15.8935 16.8095C15.0802 18.3771 13.8893 19.8526 12.7855 21.3465C11.3913 23.2278 9.82281 25.0537 8.45764 26.9349C8.34145 27.0824 8.16718 27.2853 8.13813 27.396C8.10908 27.4882 8.16718 27.5251 8.31241 27.562C8.42859 27.5804 8.45764 27.5435 8.54478 27.4882C9.09666 27.0271 9.59044 26.566 10.1423 26.1234C11.6818 24.777 13.2503 23.4306 14.8188 22.0843C16.0097 21.0699 17.2296 20.0371 18.4496 19.0411C19.6114 18.1374 20.6861 17.1414 21.9932 16.3299C21.0928 17.7501 20.2214 19.1887 19.35 20.6272C18.4205 22.1765 17.5201 23.7626 16.7649 25.3488C16.5325 25.9021 16.3001 26.4738 16.242 27.064C16.213 27.2115 16.2711 27.4882 16.4163 27.5435C16.6196 27.6173 16.9682 27.5066 17.1425 27.4144C17.6072 27.1931 18.0139 26.9533 18.3915 26.6951C19.2919 26.1049 20.0762 25.441 20.8604 24.777C21.6447 24.1131 22.3999 23.4306 23.1841 22.7482C24.7236 21.4019 26.263 20.0555 27.9768 18.8013C29.6033 17.6025 31.3461 16.4406 33.4375 15.5553C34.4831 15.1127 35.5869 14.7254 36.8068 14.5225C37.9396 14.3196 39.0724 14.2827 40.2343 14.338C40.3795 14.338 40.9024 14.3749 40.6119 14.2643Z" fill="#F5F5F5"/>
<path fill-rule="evenodd" clip-rule="evenodd" d="M40.9393 13.3263L40.9656 13.3363C41.0131 13.3544 41.1418 13.4038 41.268 13.4952C41.3175 13.5312 41.4959 13.6625 41.6056 13.9104C41.6692 14.0542 41.7135 14.2474 41.68 14.4671C41.6466 14.6861 41.5477 14.8552 41.4479 14.9709C41.2754 15.1709 41.0733 15.245 41.0179 15.2648C40.9356 15.2944 40.8648 15.3082 40.8255 15.3149C40.7446 15.3287 40.6707 15.3329 40.6273 15.3346C40.5106 15.3394 40.1866 15.3309 40.2345 15.3309H40.2109L40.1873 15.3297C39.0765 15.2768 38.0217 15.3135 36.9821 15.4997L36.976 15.5008L36.9699 15.5018C35.8562 15.6871 34.8321 16.0431 33.8247 16.4696C31.8384 17.3104 30.1681 18.4198 28.566 19.6005L28.5647 19.6015L28.5634 19.6025C26.8899 20.8272 25.382 22.1452 23.838 23.4955L23.837 23.4964L23.8361 23.4972C23.559 23.7383 23.2793 23.985 22.9977 24.2334C22.5039 24.6689 22.0043 25.1096 21.5022 25.5347L21.4833 25.5507C20.7129 26.2029 19.8921 26.8979 18.9441 27.5202C18.5338 27.8002 18.0902 28.0618 17.5855 28.3032C17.4224 28.3869 17.217 28.4633 17.0067 28.5102C16.8218 28.5515 16.453 28.6129 16.0779 28.4768L16.0704 28.4741L16.0631 28.4713C16.0183 28.4543 15.9762 28.4352 15.9364 28.4144L15.7574 28.3032L15.656 28.209C15.4405 27.995 15.3493 27.7417 15.315 27.6299C15.253 27.4284 15.2208 27.1785 15.2577 26.932C15.338 26.1839 15.6278 25.4926 15.8497 24.9642L15.8586 24.9428L15.8686 24.9218C16.5885 23.4099 17.4324 21.9072 18.2991 20.4505C17.348 21.2382 16.399 22.0426 15.4644 22.8387C13.8957 24.1852 12.3312 25.5282 10.7962 26.8707L10.7803 26.8846L10.7638 26.8978C10.4467 27.1521 10.1862 27.3806 9.9075 27.625C9.68871 27.8169 9.45876 28.0185 9.1816 28.2501L9.1319 28.2916L9.07722 28.3263C9.06604 28.3334 9.06625 28.3333 9.06684 28.3331C9.06777 28.3326 9.06964 28.3318 9.03062 28.3573C8.99917 28.3778 8.9252 28.4253 8.82675 28.467C8.579 28.5719 8.34496 28.5724 8.15696 28.5425L8.11216 28.5354L8.0682 28.5242C8.06571 28.5236 8.06276 28.5229 8.05937 28.522C7.98873 28.5045 7.72714 28.4397 7.50712 28.2476C7.35682 28.1164 7.217 27.921 7.1619 27.6629C7.11375 27.4374 7.14781 27.2447 7.18477 27.1191C7.22896 26.9649 7.29811 26.8446 7.33387 26.7853C7.37953 26.7095 7.42872 26.6404 7.4687 26.5867C7.52205 26.5149 7.59328 26.4261 7.64022 26.3676C7.65034 26.355 7.65934 26.3437 7.66678 26.3344C8.36035 25.3797 9.10214 24.4426 9.8338 23.5226C9.87899 23.4658 9.92414 23.409 9.96924 23.3524C10.6628 22.4805 11.3445 21.6235 11.9875 20.7561C12.2027 20.4647 12.417 20.1793 12.6282 19.8979C13.46 18.7901 14.2438 17.7462 14.8471 16.6597C14.7461 16.665 14.6306 16.6744 14.4993 16.6889C13.4291 16.8223 12.3864 17.1574 11.3731 17.5506L11.3703 17.5517L11.3674 17.5528C10.4015 17.9208 9.48558 18.3609 8.61887 18.8402L8.61084 18.8446L8.60272 18.8489C8.6032 18.8487 8.60223 18.8492 8.59962 18.8507C8.59024 18.8561 8.55972 18.8735 8.49892 18.9093C8.4307 18.9494 8.34112 19.0025 8.23634 19.0649C8.14559 19.1189 8.03762 19.1833 7.9232 19.2515C7.78599 19.3334 7.63951 19.4208 7.50235 19.5024C7.24263 19.6569 6.98321 19.8105 6.78579 19.9249C6.68821 19.9815 6.59912 20.0323 6.53053 20.0697C6.50494 20.0837 6.47436 20.1001 6.44344 20.1157C3.61456 22.0358 2.21524 22.981 1.71324 23.3147C1.60407 23.3873 1.50128 23.4554 1.44715 23.4867C1.44009 23.4908 1.42856 23.4974 1.41438 23.5049C1.40478 23.5101 1.37306 23.527 1.33111 23.5447C1.30698 23.5545 1.24183 23.5775 1.2003 23.5895C1.11718 23.6079 0.822731 23.6157 0.617989 23.5681C0.228508 23.3188 -0.0488734 22.6094 0.00721223 22.3006C0.0535754 22.1904 0.144459 22.0411 0.178665 21.9973C0.227873 21.9377 0.274484 21.8963 0.283159 21.8886L0.284042 21.8879C0.300199 21.8734 0.313707 21.8623 0.320859 21.8565C0.335736 21.8444 0.348757 21.8344 0.355834 21.8291C0.382842 21.8086 0.418828 21.7828 0.45212 21.7592C0.595408 21.6574 0.897363 21.4477 1.28221 21.1819C2.72177 20.1876 5.47271 18.3027 5.82599 18.0621L5.82582 18.0619C6.71699 17.4375 7.72201 16.8582 8.75032 16.3588L8.75941 16.3544L8.76858 16.3502C10.2752 15.6561 11.9642 14.9686 13.8617 14.6328L13.8664 14.632L13.8711 14.6312C14.4644 14.5321 15.1971 14.4578 15.9332 14.5746L15.9401 14.5757L15.9469 14.5769C16.4541 14.6647 16.9085 14.8945 17.219 15.2945C17.525 15.6886 17.6101 16.144 17.5809 16.5332L17.5797 16.5497L17.5779 16.5662C17.5257 17.0464 17.2671 17.5879 17.0492 17.9962C16.8082 18.4477 16.515 18.9171 16.2623 19.3042C16.2508 19.3221 16.2392 19.3401 16.2275 19.3582C16.6105 19.0407 16.9945 18.7235 17.3798 18.4062C18.6555 17.3385 19.9784 16.237 21.3638 15.1888C21.3666 15.1866 21.3697 15.1843 21.3729 15.1818C21.4459 15.126 21.6326 14.9831 21.8633 14.8797C22.1022 14.7726 22.5529 14.6339 23.0486 14.8438L23.0752 14.855L23.1012 14.8679C23.4082 15.0195 23.6617 15.3001 23.7421 15.6832C23.8086 15.9995 23.7295 16.2658 23.6818 16.397C23.6292 16.5418 23.5605 16.6642 23.5209 16.7325C23.5051 16.7598 23.4877 16.7891 23.4759 16.8089C23.4726 16.8144 23.4698 16.8191 23.4675 16.8229C23.4562 16.8419 23.4526 16.8485 23.4526 16.8485L23.4484 16.8563L23.4431 16.8659C23.204 17.298 22.9308 17.7567 22.6659 18.2014C22.5091 18.4645 22.3553 18.7227 22.2132 18.9676L22.2083 18.9761L22.2032 18.9845C21.1358 20.7429 20.0972 22.5383 19.1162 24.3153C19.0532 24.4299 18.9905 24.5434 18.9284 24.6558C18.8843 24.7356 18.8406 24.8149 18.7972 24.8936C18.9934 24.7386 19.1893 24.579 19.3873 24.4161L19.3888 24.4148L19.3904 24.4136C20.1879 23.7624 20.9594 23.0913 21.7054 22.4172L21.7147 22.4087L21.7243 22.4005C22.0327 22.1358 22.3417 21.8689 22.652 21.6008C23.9039 20.5191 25.1779 19.4184 26.5241 18.3687L26.5262 18.367L26.5284 18.3654C28.179 17.0927 29.9798 15.832 32.0663 14.7952L32.0697 14.7935L32.0731 14.7919C33.7741 13.9625 35.8168 13.2487 38.0433 13.0894L38.0472 13.0891L38.0512 13.0888C38.6725 13.0494 39.3198 13.0476 39.982 13.1317L39.9888 13.1325L40.0258 13.1377C40.2665 13.1716 40.5994 13.2184 40.9126 13.3178L40.9393 13.3263ZM22.4972 16.5235C22.5231 16.4773 22.5489 16.4312 22.5744 16.3852C22.5881 16.359 22.6062 16.3287 22.6259 16.2957C22.731 16.1195 22.8817 15.8668 22.6615 15.7581C22.4001 15.6474 22.1096 15.8688 21.9644 15.9794C21.9632 15.9803 21.962 15.9812 21.9608 15.9821C21.9447 15.9943 21.9285 16.0066 21.9123 16.0189C21.9075 16.0226 21.9026 16.0263 21.8977 16.03C21.8772 16.0455 21.8567 16.0611 21.8362 16.0767C21.8246 16.0855 21.813 16.0944 21.8013 16.1032C21.7763 16.1223 21.7513 16.1414 21.7263 16.1605C21.6277 16.236 21.5293 16.3117 21.4312 16.3877C21.0001 16.7216 20.5745 17.0602 20.1535 17.4011C19.5399 17.8979 18.936 18.3995 18.3389 18.8985C18.3378 18.8994 18.3367 18.9003 18.3356 18.9012C18.2282 18.9909 18.1211 19.0806 18.0141 19.1701C16.8976 20.0896 15.7915 21.009 14.6897 21.9324C14.6895 21.9325 14.6893 21.9327 14.6891 21.9329C14.3657 22.2039 14.0427 22.4752 13.7199 22.747C13.3476 23.0605 12.9756 23.3746 12.6035 23.6894C12.5974 23.6945 12.5914 23.6997 12.5853 23.7048C12.5553 23.7302 12.5253 23.7556 12.4953 23.781C12.1596 24.0703 11.8189 24.3596 11.4753 24.6489C10.9866 25.0604 10.492 25.4719 9.9974 25.8835L9.99731 25.8835C9.98803 25.8914 9.97868 25.8993 9.96924 25.9072C9.96625 25.9098 9.96324 25.9123 9.96022 25.9148C9.79451 26.0544 9.60545 26.2087 9.41638 26.3631C9.57217 26.1844 9.72796 26.0057 9.8833 25.8269C9.88702 25.8226 9.89075 25.8183 9.89447 25.814C9.9019 25.8055 9.90932 25.7969 9.91674 25.7884C9.91698 25.7881 9.91722 25.7878 9.91745 25.7876C10.6482 24.946 11.3683 24.1022 12.0305 23.2461C12.0312 23.2454 12.0318 23.2446 12.0324 23.2439C12.0338 23.2422 12.0351 23.2406 12.0364 23.239C12.1051 23.1559 12.174 23.0725 12.2429 22.9886C12.4973 22.6795 12.753 22.3656 13.0063 22.0499C13.0969 21.937 13.1872 21.8238 13.277 21.7105C13.2772 21.7103 13.2774 21.7101 13.2776 21.7098C14.0757 20.7033 14.8346 19.6896 15.429 18.7644C15.77 18.2421 16.1665 17.5967 16.3983 17.0711C16.3986 17.0704 16.3989 17.0697 16.3992 17.069C16.5025 16.8345 16.5729 16.6239 16.5908 16.459C16.6199 16.0716 16.4165 15.6659 15.7775 15.5552C15.3112 15.4812 14.8262 15.5022 14.3675 15.5611C14.3669 15.5612 14.3664 15.5613 14.3658 15.5614C14.2536 15.5758 14.1431 15.5925 14.0347 15.6106C12.95 15.8025 11.9307 16.1189 10.9633 16.4919C10.963 16.4921 10.9627 16.4922 10.9624 16.4923C10.3499 16.7285 9.75824 16.9875 9.18401 17.252C8.80534 17.4359 8.43095 17.6306 8.06573 17.8341C8.06489 17.8345 8.06406 17.835 8.06322 17.8355C7.47685 18.1623 6.91419 18.5117 6.39557 18.875C6.39254 18.877 6.26051 18.9673 6.03937 19.1187C6.00415 19.1428 5.96667 19.1685 5.92709 19.1956C4.97034 19.851 2.78708 21.3481 1.65464 22.1315C0.845865 22.691 0.573072 22.8865 1.66584 22.1514C2.399 21.6582 3.74683 20.746 5.95987 19.2439C5.96908 19.2498 6.17388 19.1333 6.45489 18.9685C6.45634 18.9676 6.45779 18.9668 6.45924 18.9659C6.74101 18.8006 7.09835 18.5875 7.41192 18.4004C7.7723 18.1854 8.07485 18.0049 8.13835 17.9713C8.49919 17.7718 8.86936 17.5781 9.24886 17.3928C9.2498 17.3923 9.25075 17.3919 9.25169 17.3914C9.81831 17.1148 10.4057 16.8567 11.0139 16.6249C11.9639 16.2563 12.9858 15.9181 14.0578 15.7487C14.0583 15.7486 14.0587 15.7486 14.0592 15.7485C14.1667 15.7315 14.2748 15.7162 14.3833 15.7028C15.034 15.6303 15.4739 15.6547 15.7416 15.7625C15.7426 15.7629 15.7435 15.7632 15.7444 15.7636C16.0358 15.8821 16.1217 16.1003 16.0527 16.4005C16.0514 16.4064 16.05 16.4123 16.0485 16.4183C16.0193 16.5366 15.9667 16.6673 15.8937 16.8094C15.6083 17.3596 15.2763 17.8984 14.918 18.4307C14.9171 18.4319 14.9163 18.4332 14.9154 18.4345C14.4416 19.1379 13.9217 19.8299 13.4021 20.5215C13.1956 20.7963 12.9892 21.0711 12.7858 21.3465C12.4016 21.8648 12.0042 22.379 11.6014 22.8913C11.5977 22.896 11.594 22.9008 11.5902 22.9055C11.3151 23.2553 11.0376 23.6043 10.7601 23.9531C10.7563 23.9578 10.7526 23.9625 10.7489 23.9672C10.483 24.3014 10.2173 24.6355 9.9538 24.9701C9.83747 25.1178 9.72159 25.2657 9.60635 25.4137C9.60526 25.4151 9.60416 25.4165 9.60307 25.4179C9.59875 25.4234 9.59442 25.429 9.5901 25.4345C9.58226 25.4446 9.57443 25.4547 9.56659 25.4648C9.42248 25.6501 9.27941 25.8358 9.13775 26.0218C9.12274 26.0415 9.10774 26.0612 9.09276 26.0809C9.08305 26.0937 9.07334 26.1065 9.06364 26.1193C8.93004 26.2955 8.79777 26.472 8.66713 26.6489C8.60417 26.7342 8.5416 26.8196 8.47944 26.9051C8.47224 26.915 8.46504 26.9249 8.45786 26.9348C8.43997 26.9575 8.42071 26.9816 8.40081 27.0063C8.39986 27.0075 8.39892 27.0087 8.39797 27.0099C8.36946 27.0454 8.33972 27.0825 8.31093 27.1195C8.29893 27.1349 8.28709 27.1503 8.27557 27.1656C8.20933 27.2536 8.15366 27.3376 8.13835 27.3959C8.1093 27.4881 8.16739 27.525 8.31262 27.5619C8.4108 27.5775 8.44676 27.5535 8.50813 27.5124C8.50828 27.5123 8.50843 27.5122 8.50859 27.5121C8.51508 27.5077 8.52186 27.5032 8.52903 27.4984C8.53414 27.4951 8.53945 27.4916 8.54499 27.4881C8.64538 27.4042 8.74386 27.3204 8.8411 27.2366C8.84608 27.2323 8.85105 27.228 8.85601 27.2238C8.91869 27.1697 8.98087 27.1157 9.04275 27.0618C9.10314 27.0092 9.16324 26.9566 9.22322 26.9042C9.33181 26.8092 9.44001 26.7146 9.54886 26.6205C9.56403 26.6074 9.57922 26.5942 9.59442 26.5811C9.6065 26.5707 9.6186 26.5603 9.63071 26.5499C9.79794 26.4062 9.96731 26.2638 10.1425 26.1233C10.153 26.1142 10.1635 26.105 10.1739 26.0958C10.1745 26.0953 10.1751 26.0948 10.1757 26.0943C10.3423 25.9486 10.5092 25.803 10.6764 25.6573C11.328 25.0899 11.9841 24.5224 12.6425 23.9549C12.643 23.9545 12.6435 23.954 12.644 23.9536C12.6836 23.9195 12.7231 23.8855 12.7626 23.8514C12.7706 23.8446 12.7785 23.8377 12.7864 23.8309C12.8427 23.7824 12.899 23.734 12.9553 23.6855C13.5753 23.1518 14.1971 22.618 14.8188 22.0843L14.819 22.0842C15.9046 21.1595 17.0143 20.2195 18.1261 19.3061C18.1264 19.3058 18.1268 19.3055 18.1272 19.3052C18.2347 19.2169 18.3422 19.1288 18.4498 19.041C18.8028 18.7664 19.1478 18.4833 19.4937 18.1995C19.6069 18.1065 19.7203 18.0135 19.834 17.9207C20.2509 17.5805 20.6734 17.2429 21.1169 16.9213C21.3758 16.7334 21.642 16.5511 21.9183 16.3768C21.9433 16.3611 21.9683 16.3454 21.9934 16.3298C21.9763 16.3568 21.9592 16.3838 21.9421 16.4108C21.5943 16.9604 21.2507 17.5127 20.9097 18.0666C20.8898 18.0988 20.87 18.131 20.8502 18.1632C20.8482 18.1665 20.8461 18.1699 20.8441 18.1732C20.7598 18.3102 20.6757 18.4474 20.5917 18.5847C20.1758 19.2642 19.763 19.9457 19.3502 20.6272C18.7766 21.5833 18.214 22.5535 17.6898 23.529C17.6896 23.5294 17.6894 23.5298 17.6892 23.5302C17.3642 24.135 17.054 24.7418 16.7651 25.3487C16.6702 25.5745 16.5754 25.8035 16.4924 26.0355C16.4916 26.0377 16.4908 26.0399 16.49 26.0421C16.3708 26.3763 16.2764 26.7169 16.2423 27.0639C16.2276 27.1383 16.2351 27.2455 16.2648 27.3406C16.2939 27.4341 16.3445 27.516 16.4165 27.5434C16.4884 27.5695 16.5783 27.5726 16.6723 27.5615C16.8444 27.5413 17.03 27.474 17.1427 27.4143C17.1939 27.39 17.2443 27.3654 17.2941 27.3406C17.3894 27.2931 17.4823 27.2448 17.5729 27.1957C17.5732 27.1955 17.5735 27.1954 17.5738 27.1952C17.621 27.1696 17.6676 27.1439 17.7136 27.1179C17.9526 26.9829 18.1769 26.842 18.3917 26.695C19.0269 26.2787 19.6042 25.8257 20.1645 25.3618C20.1648 25.3617 20.165 25.3615 20.1653 25.3613C20.399 25.1677 20.6298 24.9723 20.8606 24.7769C21.3566 24.3571 21.8409 23.9298 22.3283 23.4998C22.3927 23.4431 22.4571 23.3862 22.5216 23.3293C22.5231 23.328 22.5246 23.3268 22.526 23.3255C22.744 23.1333 22.963 22.9407 23.1843 22.7482L23.1844 22.7481C24.5098 21.589 25.8352 20.4298 27.2717 19.3295C27.2721 19.3293 27.2724 19.329 27.2727 19.3288C27.5044 19.1513 27.739 18.9754 27.977 18.8013C29.3879 17.7614 30.8863 16.7492 32.6238 15.9213C32.6244 15.9211 32.625 15.9208 32.6255 15.9205C32.8905 15.7943 33.161 15.6723 33.4377 15.5552C34.4833 15.1126 35.5871 14.7253 36.807 14.5224C37.248 14.4434 37.689 14.3896 38.1317 14.3566C38.1324 14.3565 38.1332 14.3565 38.1339 14.3564C38.6545 14.3177 39.1775 14.3077 39.7056 14.3194C39.7463 14.3203 39.7871 14.3213 39.8279 14.3224C39.8288 14.3225 39.8298 14.3225 39.8307 14.3225C39.965 14.3263 40.0995 14.3315 40.2345 14.338C40.2594 14.338 40.2955 14.339 40.3367 14.3403C40.4138 14.3426 40.5089 14.3455 40.5822 14.3427C40.5839 14.3427 40.5856 14.3426 40.5872 14.3425C40.6994 14.3379 40.7571 14.3194 40.6121 14.2642C40.4949 14.227 40.3704 14.1992 40.2422 14.176C40.2396 14.1755 40.2371 14.1751 40.2345 14.1746C40.1109 14.1525 39.9839 14.1346 39.857 14.1166C39.8144 14.1112 39.7718 14.1062 39.7293 14.1016C39.1908 14.0431 38.6525 14.0456 38.1141 14.0798C37.6556 14.1126 37.2043 14.1709 36.7618 14.2505C36.7607 14.2507 36.7596 14.2509 36.7584 14.2511C35.5385 14.4708 34.3852 14.8522 33.3321 15.3059C33.0501 15.4274 32.7752 15.5541 32.5082 15.6843C30.791 16.5376 29.2658 17.5534 27.8411 18.6156C27.8409 18.6158 27.8407 18.6159 27.8405 18.6161C27.6025 18.7935 27.3674 18.9722 27.1346 19.1517C25.8101 20.1845 24.5599 21.2646 23.3098 22.3446C23.2191 22.423 23.1284 22.5013 23.0377 22.5797C23.0376 22.5798 23.0374 22.5799 23.0373 22.58C22.8155 22.7715 22.5936 22.9629 22.371 23.1539C21.8336 23.6396 21.2814 24.1253 20.7144 24.6043C20.4848 24.7983 20.2527 24.9913 20.0183 25.1827C19.4633 25.6395 18.8938 26.0963 18.2686 26.5073C18.2674 26.5081 18.2662 26.5089 18.2649 26.5097C18.1324 26.5968 17.9973 26.6818 17.8594 26.7643C17.7296 26.8419 17.5974 26.9173 17.4622 26.9901C17.4027 27.0225 17.3233 27.0644 17.2363 27.1079C17.233 27.1096 17.2297 27.1112 17.2264 27.1128C17.1998 27.1261 17.1725 27.1395 17.145 27.1528C17.1107 27.1693 17.0759 27.1857 17.0413 27.2015C17.0383 27.2029 17.0353 27.2042 17.0322 27.2056C17.0251 27.2088 17.018 27.2121 17.0109 27.2152C16.8668 27.2798 16.7298 27.332 16.6489 27.3406C16.6489 27.2801 16.6565 27.2155 16.6697 27.1481C16.6724 27.1344 16.6753 27.1207 16.6785 27.1069C16.7042 26.9929 16.7447 26.8719 16.7912 26.7501C16.7964 26.7365 16.8017 26.723 16.807 26.7094C16.8157 26.6872 16.8245 26.665 16.8335 26.6428C16.865 26.565 16.898 26.4876 16.9301 26.4121C16.9304 26.4114 16.9307 26.4107 16.931 26.41C16.9538 26.3563 16.9763 26.3035 16.9975 26.2524C17.0067 26.2309 17.0161 26.2093 17.0255 26.1877C17.0261 26.1862 17.0268 26.1847 17.0275 26.1832C17.0442 26.145 17.0612 26.1067 17.0784 26.0685C17.1483 25.9131 17.2221 25.7579 17.2987 25.6028C17.3028 25.5945 17.3069 25.5862 17.311 25.5779C17.5453 25.1055 17.8055 24.6348 18.0627 24.1695C18.1242 24.0581 18.1856 23.947 18.2465 23.8363C18.7764 22.8764 19.323 21.9112 19.8818 20.9492C19.8823 20.9484 19.8827 20.9477 19.8832 20.9469C20.3654 20.1168 20.8568 19.2891 21.3544 18.4693C21.5095 18.2019 21.6689 17.9346 21.8276 17.6682C21.8399 17.6476 21.8523 17.6269 21.8646 17.6063C21.9743 17.4221 22.0837 17.2384 22.1909 17.0555C22.2321 16.9853 22.273 16.9152 22.3134 16.8453C22.3398 16.7998 22.366 16.7543 22.392 16.7089C22.4097 16.6779 22.4273 16.647 22.4449 16.6161C22.445 16.6158 22.4452 16.6155 22.4454 16.6152C22.4459 16.6143 22.4464 16.6135 22.4469 16.6126C22.4637 16.5829 22.4805 16.5532 22.4972 16.5235ZM15.3738 16.6846C15.3738 16.6846 15.3731 16.6844 15.3718 16.6839C15.3732 16.6844 15.3738 16.6846 15.3738 16.6846Z" fill="#F5F5F5"/>
</svg>
