<svg width="90" height="21" viewBox="0 0 90 21" fill="none" xmlns="http://www.w3.org/2000/svg">
<path d="M15.876 0.343999V4.18H10.668V20H5.88V4.18H0.672V0.343999H15.876ZM31.047 11.936C31.047 12.384 31.019 12.8507 30.963 13.336H20.127C20.2016 14.3067 20.5096 15.0533 21.051 15.576C21.611 16.08 22.2923 16.332 23.095 16.332C24.2896 16.332 25.1203 15.828 25.587 14.82H30.683C30.4216 15.8467 29.9456 16.7707 29.255 17.592C28.583 18.4133 27.7336 19.0573 26.707 19.524C25.6803 19.9907 24.5323 20.224 23.263 20.224C21.7323 20.224 20.3696 19.8973 19.175 19.244C17.9803 18.5907 17.047 17.6573 16.375 16.444C15.703 15.2307 15.367 13.812 15.367 12.188C15.367 10.564 15.6936 9.14533 16.347 7.932C17.019 6.71867 17.9523 5.78533 19.147 5.132C20.3416 4.47867 21.7136 4.152 23.263 4.152C24.775 4.152 26.119 4.46933 27.295 5.104C28.471 5.73867 29.3856 6.644 30.039 7.82C30.711 8.996 31.047 10.368 31.047 11.936ZM26.147 10.676C26.147 9.85467 25.867 9.20133 25.307 8.716C24.747 8.23067 24.047 7.988 23.207 7.988C22.4043 7.988 21.723 8.22133 21.163 8.688C20.6216 9.15467 20.2856 9.81733 20.155 10.676H26.147ZM42.2529 20L39.2569 15.66L36.7369 20H31.5569L36.7089 12.02L31.4169 4.376H36.7929L39.7889 8.688L42.3089 4.376H47.4889L42.2529 12.244L47.6289 20H42.2529ZM58.8818 15.94V20H56.4458C54.7098 20 53.3565 19.58 52.3858 18.74C51.4151 17.8813 50.9298 16.4907 50.9298 14.568V8.352H49.0258V4.376H50.9298V0.568H55.7178V4.376H58.8538V8.352H55.7178V14.624C55.7178 15.0907 55.8298 15.4267 56.0538 15.632C56.2778 15.8373 56.6511 15.94 57.1738 15.94H58.8818ZM76.9768 11.936C76.9768 12.384 76.9488 12.8507 76.8928 13.336H66.0568C66.1315 14.3067 66.4395 15.0533 66.9808 15.576C67.5408 16.08 68.2221 16.332 69.0248 16.332C70.2195 16.332 71.0501 15.828 71.5168 14.82H76.6128C76.3515 15.8467 75.8755 16.7707 75.1848 17.592C74.5128 18.4133 73.6635 19.0573 72.6368 19.524C71.6101 19.9907 70.4621 20.224 69.1928 20.224C67.6621 20.224 66.2995 19.8973 65.1048 19.244C63.9101 18.5907 62.9768 17.6573 62.3048 16.444C61.6328 15.2307 61.2968 13.812 61.2968 12.188C61.2968 10.564 61.6235 9.14533 62.2768 7.932C62.9488 6.71867 63.8821 5.78533 65.0768 5.132C66.2715 4.47867 67.6435 4.152 69.1928 4.152C70.7048 4.152 72.0488 4.46933 73.2248 5.104C74.4008 5.73867 75.3155 6.644 75.9688 7.82C76.6408 8.996 76.9768 10.368 76.9768 11.936ZM72.0768 10.676C72.0768 9.85467 71.7968 9.20133 71.2368 8.716C70.6768 8.23067 69.9768 7.988 69.1368 7.988C68.3341 7.988 67.6528 8.22133 67.0928 8.688C66.5515 9.15467 66.2155 9.81733 66.0848 10.676H72.0768ZM84.9907 6.98C85.5507 6.12133 86.2507 5.44933 87.0907 4.964C87.9307 4.46 88.8641 4.208 89.8907 4.208V9.276H88.5747C87.3801 9.276 86.4841 9.53733 85.8867 10.06C85.2894 10.564 84.9907 11.46 84.9907 12.748V20H80.2027V4.376H84.9907V6.98Z" fill="#20C997"/>
</svg>
