<svg width="34" height="26" viewBox="0 0 34 26" fill="none" xmlns="http://www.w3.org/2000/svg">
<path d="M0 11.22L13.4925 22.7145L33.0145 12.2136L18.7751 0.195614L19.1389 0L33.2889 11.7432V14.4462L13.2902 25.1772L0 13.8042V11.22Z" fill="#B14932"/>
<path d="M0.748779 10.0358L2.45196 8.98035L6.52292 12.4317L6.54473 14.9522L0.748779 10.0358Z" fill="#B14932"/>
<path d="M6.68604 12.3782V15.1763L15.8922 10.2356L9.80144 5.01526L9.09286 5.39593L13.1673 8.89236L6.68604 12.3782Z" fill="#B14932"/>
<path d="M2.64697 8.85826L6.60077 12.2073L12.8362 8.83644L8.91366 5.492L2.64697 8.85826Z" fill="#B14932"/>
<path d="M10.1704 4.81719L12.1132 3.77368L16.118 7.20924L15.9987 9.77897L10.1704 4.81719Z" fill="#B14932"/>
<path d="M12.3628 3.63964L16.2473 6.94116L22.388 3.70614L18.468 0.360291L12.3628 3.63964Z" fill="#B14932"/>
<path d="M7.74585 16.0006L9.54191 15.0254L13.5566 18.4201L13.7205 21.0831L7.74585 16.0006Z" fill="#B14932"/>
<path d="M13.7205 18.316L13.8809 21.1049L22.9717 16.2385L16.8608 11.0607L16.1604 11.442L20.2264 14.9047L13.7205 18.316Z" fill="#B14932"/>
<path d="M9.76294 14.8997L13.595 18.1636L19.8121 14.8005L16.0011 11.5553L9.76294 14.8997Z" fill="#B14932"/>
<path d="M16.3736 7.06748L16.2346 10.0615L24.5922 5.60249L22.5221 3.8205L16.3736 7.06748Z" fill="#B14932"/>
<path d="M17.2529 10.8464L19.2119 9.82611L23.2396 13.2135L23.3465 16.0362L17.2529 10.8464Z" fill="#B14932"/>
<path d="M19.4612 9.697L23.2707 12.9429L29.3802 9.66146L25.559 6.40674L19.4612 9.697Z" fill="#B14932"/>
<path d="M23.4224 13.1385L23.5817 15.9109L31.6955 11.5529L29.6672 9.82611L23.4224 13.1385Z" fill="#B14932"/>
<path d="M0.5594 10.2356L6.49432 15.2551L6.67516 15.4363L25.1924 5.5152L25.8717 6.03836L7.31759 15.9915L13.6803 21.4279L32.2739 11.4494L32.7766 11.8435L13.5301 22.1896L0 10.5607L0.5594 10.2356Z" fill="#B14932"/>
</svg>
