<svg width="33" height="25" viewBox="0 0 33 25" fill="none" xmlns="http://www.w3.org/2000/svg">
<path fill-rule="evenodd" clip-rule="evenodd" d="M26.6482 20.1662C20.6806 23.5615 15.4333 23.7673 10.9062 20.8864C7.40798 22.5326 3.80688 23.6644 0.102889 24.3846C0.102889 24.3846 0.102889 23.7673 0 22.5326C9.77442 21.1951 18.4171 15.6391 25.1048 8.64265C19.3431 13.3755 13.89 16.668 8.74554 18.6229C8.33398 13.0669 10.5975 8.64265 15.6391 5.35021C15.3304 6.27621 15.3304 7.20221 15.5362 8.23109C17.1824 5.96754 19.6517 4.21844 23.0471 2.77799C22.5326 3.90977 22.5326 4.83577 22.9442 5.55599C23.8702 3.29244 26.9568 1.44044 32.1013 0C32.1013 5.55599 30.7637 9.46576 28.0886 11.7293C29.4262 11.8322 30.455 11.5235 31.381 10.8033C29.0146 15.4333 25.9279 18.4171 21.9153 19.8575C23.2528 20.8864 24.8991 20.8864 26.6482 20.1662Z" fill="#F4F4F4"/>
</svg>
